<?xml version="1.0" encoding="utf-8"?>
<!-- Generator: Adobe Illustrator 24.0.0, SVG Export Plug-In . SVG Version: 6.00 Build 0)  -->
<svg version="1.0" id="Capa_1" xmlns="http://www.w3.org/2000/svg" xmlns:xlink="http://www.w3.org/1999/xlink" x="0px" y="0px"
	 viewBox="0 0 108 35" style="enable-background:new 0 0 108 35;" xml:space="preserve">
<style type="text/css">
	.st0{fill:#FFFFFF;}
	.st1{fill:#FFE98D;}
</style>
<g>
	<g>
		<g>
			<path class="st0" d="M26.4,29.6H4.9c-0.8,0-1.4-0.6-1.4-1.4c0-0.8,0.6-1.4,1.4-1.4h20.4l3.5-16.2c0.1-0.7,0.7-1.1,1.4-1.1h5.1
				c0.8,0,1.4,0.6,1.4,1.4c0,0.8-0.6,1.4-1.4,1.4h-3.9l-3.5,16.2C27.7,29.1,27.1,29.6,26.4,29.6z"/>
		</g>
		<g>
			<path class="st1" d="M15.8,11.7c-0.2-0.1-0.4-0.1-0.5,0l-7.2,6.4v7.3h15.3v-7.3L15.8,11.7z M15.2,22.1c0,0.2-0.2,0.4-0.4,0.4
				h-1.5c-0.2,0-0.4-0.2-0.4-0.4v-1.5c0-0.2,0.2-0.4,0.4-0.4h1.5c0.2,0,0.4,0.2,0.4,0.4V22.1z M15.2,18.9c0,0.2-0.2,0.4-0.4,0.4
				h-1.5c-0.2,0-0.4-0.2-0.4-0.4v-1.5c0-0.2,0.2-0.4,0.4-0.4h1.5c0.2,0,0.4,0.2,0.4,0.4V18.9z M18.5,22.1c0,0.2-0.2,0.4-0.4,0.4
				h-1.5c-0.2,0-0.4-0.2-0.4-0.4v-1.5c0-0.2,0.2-0.4,0.4-0.4h1.5c0.2,0,0.4,0.2,0.4,0.4V22.1z M18.5,18.9c0,0.2-0.2,0.4-0.4,0.4
				h-1.5c-0.2,0-0.4-0.2-0.4-0.4v-1.5c0-0.2,0.2-0.4,0.4-0.4h1.5c0.2,0,0.4,0.2,0.4,0.4V18.9z"/>
			<path class="st1" d="M25.3,15.8l-7.9-6.8c-0.9-0.8-2.4-0.8-3.4,0l-7.9,6.8c-0.6,0.5-0.2,1.5,0.7,1.5h0.5c0,0,5.4-4.8,7.2-6.4
				c0.9-0.8,1.4-0.7,2.2,0c1.9,1.6,7.5,6.4,7.5,6.4h0.5C25.5,17.2,25.9,16.3,25.3,15.8z"/>
		</g>
	</g>
	<g>
		<path class="st0" d="M33.5,21.7l-1.2,3.7h-1.6l4-11.7h1.8l4,11.7h-1.6l-1.2-3.7H33.5z M37.4,20.6l-1.1-3.4
			c-0.3-0.8-0.4-1.5-0.6-2.1h0c-0.2,0.7-0.4,1.4-0.6,2.1l-1.1,3.4H37.4z"/>
		<path class="st0" d="M42.1,13.1h1.5v12.3h-1.5V13.1z"/>
		<path class="st0" d="M46.2,19.3c0-0.9,0-1.6-0.1-2.3h1.3l0.1,1.4h0.1c0.5-0.8,1.2-1.5,2.6-1.5c1.1,0,2,0.7,2.4,1.7h0
			c0.3-0.5,0.6-0.8,0.9-1.1c0.5-0.4,1.1-0.6,1.9-0.6c1.1,0,2.8,0.7,2.8,3.6v4.9h-1.5v-4.7c0-1.6-0.6-2.6-1.8-2.6
			c-0.9,0-1.5,0.6-1.8,1.4C53,19.7,53,20,53,20.2v5.2h-1.5v-5c0-1.3-0.6-2.3-1.8-2.3c-1,0-1.6,0.8-1.9,1.5c-0.1,0.2-0.1,0.5-0.1,0.7
			v5.1h-1.5V19.3z"/>
		<path class="st0" d="M65.3,25.4l-0.1-1.1h-0.1c-0.5,0.7-1.4,1.2-2.6,1.2c-1.7,0-2.6-1.2-2.6-2.4c0-2,1.8-3.1,5-3.1v-0.2
			c0-0.7-0.2-1.9-1.9-1.9c-0.8,0-1.6,0.2-2.2,0.6l-0.3-1c0.7-0.5,1.7-0.7,2.8-0.7c2.6,0,3.2,1.7,3.2,3.4v3.1c0,0.7,0,1.4,0.1,2H65.3
			z M65.1,21.1c-1.7,0-3.6,0.3-3.6,1.9c0,1,0.7,1.5,1.4,1.5c1.1,0,1.8-0.7,2-1.4c0.1-0.2,0.1-0.3,0.1-0.5V21.1z"/>
		<path class="st0" d="M75,25.1c-0.4,0.2-1.3,0.5-2.4,0.5c-2.5,0-4.2-1.7-4.2-4.3c0-2.6,1.8-4.5,4.5-4.5c0.9,0,1.7,0.2,2.1,0.4
			l-0.3,1.2c-0.4-0.2-0.9-0.4-1.8-0.4c-1.9,0-3,1.4-3,3.2c0,1.9,1.2,3.1,2.9,3.1c0.9,0,1.4-0.2,1.9-0.4L75,25.1z"/>
		<path class="st0" d="M77.5,21.5c0,2.1,1.4,2.9,2.9,2.9c1.1,0,1.7-0.2,2.3-0.4l0.3,1.1c-0.5,0.2-1.5,0.5-2.8,0.5
			c-2.6,0-4.1-1.7-4.1-4.2s1.5-4.5,3.9-4.5c2.7,0,3.5,2.4,3.5,3.9c0,0.3,0,0.6-0.1,0.7H77.5z M82,20.4c0-1-0.4-2.5-2.1-2.5
			c-1.5,0-2.2,1.4-2.3,2.5H82z M82.3,13.4l-2.1,2.5h-1.1l1.5-2.5H82.3z"/>
		<path class="st0" d="M85.3,19.3c0-0.9,0-1.6-0.1-2.3h1.4l0.1,1.4h0c0.4-0.8,1.4-1.6,2.8-1.6c1.2,0,3,0.7,3,3.6v5h-1.5v-4.8
			c0-1.4-0.5-2.5-1.9-2.5c-1,0-1.8,0.7-2,1.6c-0.1,0.2-0.1,0.5-0.1,0.7v5h-1.5V19.3z"/>
	</g>
	<g>
		<path class="st0" d="M40.2,10.8c0.3,0.2,0.7,0.3,1.2,0.3c0.7,0,1-0.3,1-0.9c0-0.5-0.3-0.7-0.9-1c-0.8-0.3-1.3-0.7-1.3-1.4
			c0-0.8,0.6-1.4,1.6-1.4c0.5,0,0.9,0.1,1.1,0.2l-0.2,0.5c-0.2-0.1-0.5-0.2-0.9-0.2c-0.7,0-0.9,0.4-0.9,0.7c0,0.5,0.3,0.7,1,1
			c0.8,0.3,1.3,0.7,1.3,1.5c0,0.8-0.6,1.4-1.7,1.4c-0.5,0-1-0.1-1.3-0.3L40.2,10.8z"/>
		<path class="st0" d="M44.6,7c0,0.2-0.2,0.4-0.4,0.4c-0.2,0-0.4-0.2-0.4-0.4c0-0.2,0.2-0.4,0.4-0.4C44.4,6.6,44.6,6.8,44.6,7z
			 M43.9,11.6V8h0.7v3.6H43.9z"/>
		<path class="st0" d="M45.5,10.9c0.2,0.1,0.5,0.3,0.9,0.3c0.5,0,0.7-0.2,0.7-0.5c0-0.3-0.2-0.5-0.7-0.7c-0.6-0.2-0.9-0.6-0.9-1
			c0-0.6,0.5-1.1,1.2-1.1c0.4,0,0.7,0.1,0.9,0.2l-0.2,0.5c-0.1-0.1-0.4-0.2-0.7-0.2c-0.4,0-0.6,0.2-0.6,0.5c0,0.3,0.2,0.4,0.7,0.6
			c0.6,0.2,0.9,0.5,0.9,1.1c0,0.6-0.5,1.1-1.3,1.1c-0.4,0-0.8-0.1-1-0.2L45.5,10.9z"/>
		<path class="st0" d="M49.3,7v1h0.9v0.5h-0.9v1.9c0,0.4,0.1,0.7,0.5,0.7c0.2,0,0.3,0,0.4,0l0,0.5c-0.1,0.1-0.3,0.1-0.6,0.1
			c-0.3,0-0.5-0.1-0.7-0.3c-0.2-0.2-0.3-0.5-0.3-0.9v-2h-0.6V8h0.6V7.2L49.3,7z"/>
		<path class="st0" d="M51.3,9.9c0,0.9,0.6,1.2,1.2,1.2c0.5,0,0.7-0.1,1-0.2l0.1,0.5c-0.2,0.1-0.6,0.2-1.2,0.2
			c-1.1,0-1.8-0.7-1.8-1.8c0-1.1,0.6-1.9,1.7-1.9c1.2,0,1.5,1,1.5,1.7c0,0.1,0,0.2,0,0.3H51.3z M53.2,9.5c0-0.4-0.2-1.1-0.9-1.1
			c-0.7,0-0.9,0.6-1,1.1H53.2z"/>
		<path class="st0" d="M54.6,9c0-0.4,0-0.7,0-1h0.6l0,0.6h0C55.4,8.3,55.8,8,56.4,8c0.5,0,0.9,0.3,1,0.7h0c0.1-0.2,0.3-0.4,0.4-0.5
			C58,8,58.2,8,58.6,8c0.5,0,1.2,0.3,1.2,1.6v2.1h-0.6v-2c0-0.7-0.3-1.1-0.8-1.1c-0.4,0-0.7,0.3-0.8,0.6c0,0.1-0.1,0.2-0.1,0.3v2.2
			h-0.6V9.5c0-0.6-0.3-1-0.7-1c-0.4,0-0.7,0.3-0.8,0.7c0,0.1-0.1,0.2-0.1,0.3v2.2h-0.6V9z"/>
		<path class="st0" d="M62.8,11.6l-0.1-0.5h0c-0.2,0.3-0.6,0.5-1.1,0.5c-0.7,0-1.1-0.5-1.1-1c0-0.9,0.8-1.3,2.2-1.3V9.3
			c0-0.3-0.1-0.8-0.8-0.8c-0.3,0-0.7,0.1-0.9,0.3l-0.1-0.4C61.1,8.1,61.5,8,62,8c1.1,0,1.4,0.7,1.4,1.5v1.3c0,0.3,0,0.6,0.1,0.9
			H62.8z M62.7,9.8c-0.7,0-1.5,0.1-1.5,0.8c0,0.4,0.3,0.6,0.6,0.6c0.5,0,0.8-0.3,0.9-0.6c0-0.1,0-0.1,0-0.2V9.8z"/>
		<path class="st0" d="M69,6.4v4.3c0,0.3,0,0.7,0,0.9h-0.6l0-0.6h0c-0.2,0.4-0.6,0.7-1.2,0.7c-0.9,0-1.5-0.7-1.5-1.8
			c0-1.2,0.7-1.9,1.6-1.9c0.5,0,0.9,0.3,1.1,0.5h0V6.4H69z M68.4,9.5c0-0.1,0-0.2,0-0.3c-0.1-0.4-0.5-0.8-0.9-0.8
			c-0.7,0-1.1,0.6-1.1,1.4c0,0.7,0.4,1.3,1.1,1.3c0.4,0,0.8-0.3,1-0.8c0-0.1,0-0.2,0-0.3V9.5z"/>
		<path class="st0" d="M70.5,9.9c0,0.9,0.6,1.2,1.2,1.2c0.5,0,0.7-0.1,1-0.2l0.1,0.5c-0.2,0.1-0.6,0.2-1.2,0.2
			c-1.1,0-1.8-0.7-1.8-1.8c0-1.1,0.6-1.9,1.7-1.9C72.7,8,73,9,73,9.6c0,0.1,0,0.2,0,0.3H70.5z M72.4,9.5c0-0.4-0.2-1.1-0.9-1.1
			c-0.7,0-0.9,0.6-1,1.1H72.4z"/>
	</g>
</g>
</svg>
