<?xml version="1.0" encoding="utf-8"?>
<!-- Generator: Adobe Illustrator 24.0.0, SVG Export Plug-In . SVG Version: 6.00 Build 0)  -->
<svg version="1.1" id="Capa_1" xmlns="http://www.w3.org/2000/svg" xmlns:xlink="http://www.w3.org/1999/xlink" x="0px" y="0px"
	 viewBox="0 0 57.4 17.8" style="enable-background:new 0 0 57.4 17.8;" xml:space="preserve">
<style type="text/css">
	.st0{fill:#FFFFFF;}
</style>
<title>logo</title>
<g>
	<g>
		<polygon class="st0" points="49.7,7 50.1,7 51,9.3 52,7 52.5,7 52.5,10.5 52,10.5 52,8.3 52,8.3 51.3,10 50.8,10 50.1,8.3 
			50.1,8.3 50.1,10.5 49.7,10.5 		"/>
	</g>
	<g>
		<rect x="53.3" y="7" class="st0" width="0.5" height="3.4"/>
	</g>
	<g>
		<path class="st0" d="M54.6,7h1.1c0.5,0,0.8,0.2,1,0.6c0.1,0.1,0.1,0.2,0.1,0.5c0,0.1,0,0.3,0,0.7c0,0.3,0,0.7,0,0.8
			c0,0.1,0,0.1,0,0.2c0,0-0.1,0.1-0.1,0.2c-0.1,0.1-0.2,0.3-0.5,0.5c-0.2,0.1-0.3,0.1-0.7,0.1h-1.1V7H54.6z M55.1,10h0.6
			c0.2,0,0.5-0.1,0.6-0.3c0-0.1,0.1-0.1,0.1-0.2c0-0.1,0-0.3,0-0.7c0-0.3,0-0.6,0-0.7c0-0.1-0.1-0.2-0.1-0.3
			c-0.1-0.2-0.3-0.3-0.6-0.3h-0.6V10z"/>
	</g>
	<g>
		<polygon class="st0" points="18.4,5.9 19.7,5.9 19.7,10.5 22.1,10.5 22.1,11.7 18.4,11.7 		"/>
	</g>
	<g>
		<rect x="23" y="5.9" class="st0" width="1.3" height="5.7"/>
	</g>
	<g>
		<polygon class="st0" points="26.9,8.3 26.9,11.7 25.7,11.7 25.7,5.9 26.7,5.9 29.1,9.3 29.1,5.9 30.4,5.9 30.4,11.7 29.3,11.7 		
			"/>
	</g>
	<g>
		<rect x="31.8" y="5.9" class="st0" width="1.3" height="5.7"/>
	</g>
	<g>
		<polygon class="st0" points="37.7,5.9 37.7,7.1 36.3,7.1 36.3,11.7 35.1,11.7 35.1,7.1 33.7,7.1 33.7,5.9 		"/>
	</g>
	<g>
		<polygon class="st0" points="42.3,5.9 42.3,7.1 39.7,7.1 39.7,8.2 41.7,8.2 41.7,9.4 39.7,9.4 39.7,10.5 42.3,10.5 42.3,11.7 
			38.4,11.7 38.4,5.9 		"/>
	</g>
	<g>
		<path class="st0" d="M47.4,11.4c-0.5,0.3-1,0.5-1.7,0.5c-0.8,0-1.6-0.3-2.2-0.9c-0.6-0.6-0.9-1.4-0.9-2.2s0.3-1.6,0.9-2.2
			C44,6,44.8,5.7,45.6,5.7s1.6,0.3,2.2,0.9c0.6,0.6,0.9,1.3,0.9,2.2c0,0.7-0.1,1.1-0.5,1.7l0.8,0.8l-0.9,0.8L47.4,11.4z M47.4,9.7
			c0.1-0.2,0.2-0.5,0.2-0.8c0-0.5-0.2-0.9-0.6-1.3C46.7,7.3,46.2,7,45.8,7c-0.5,0-0.9,0.2-1.3,0.6c-0.3,0.3-0.6,0.8-0.6,1.3
			s0.2,0.9,0.6,1.3c0.3,0.3,0.8,0.6,1.3,0.6c0.3,0,0.6-0.1,0.8-0.2l-1.3-1.3l0.9-0.8L47.4,9.7z"/>
	</g>
	<g>
		<path class="st0" d="M17.8,10.8c-0.6,0.6-1.3,0.9-2.1,0.9c-0.8,0-1.5-0.3-2.2-0.9c-0.6-0.6-0.9-1.4-0.9-2.2s0.3-1.5,0.9-2.1
			c0.6-0.6,1.3-0.9,2.2-0.9c0.8,0,1.5,0.3,2.1,0.9L17,7.4c-0.3-0.3-0.8-0.6-1.3-0.6c-0.5,0-0.9,0.2-1.3,0.6
			c-0.3,0.3-0.6,0.8-0.6,1.3s0.2,0.9,0.6,1.3s0.8,0.6,1.3,0.6c0.5,0,0.9-0.2,1.3-0.6L17.8,10.8z"/>
	</g>
	<g>
		<path class="st0" d="M8.8,5.2c0.8,0.8,1.3,1.8,1.3,3s-0.5,2.2-1.1,3L5.8,8.1L8.8,5.2z"/>
	</g>
	<g>
		<path class="st0" d="M5.7,12.4C7,12.4,8,12,8.8,11.2l0.6,0.6c-0.8,1-2.2,1.6-3.7,1.6c-1.4,0-2.8-0.6-3.7-1.5l0.6-0.6
			C3.5,12,4.6,12.4,5.7,12.4z"/>
	</g>
	<g>
		<path class="st0" d="M5.8,3.8c-1.3,0-2.3,0.5-3.1,1.3L2.2,4.4c0.9-0.9,2.3-1.5,3.8-1.5c1.4,0,2.6,0.7,3.6,1.6L8.8,5.1
			C8.1,4.3,7,3.8,5.8,3.8z"/>
	</g>
	<g>
		<path class="st0" d="M10.5,8.2c0-1.1-0.5-2.3-1.3-3l0.6-0.6c0.9,0.9,1.5,2.2,1.5,3.7c0,1.4-0.6,2.6-1.5,3.6l-0.6-0.6
			C10.1,10.4,10.5,9.3,10.5,8.2z"/>
	</g>
	<g>
		<path class="st0" d="M1.8,4.5l0.6,0.6C1.6,5.9,1.1,7,1.1,8.2s0.5,2.3,1.3,3l-0.6,0.6c-1-0.8-1.6-2.2-1.6-3.6
			C0.2,6.7,0.8,5.4,1.8,4.5z"/>
	</g>
</g>
</svg>
